<svg width="24" height="24" viewBox="0 0 24 24" fill="none" xmlns="http://www.w3.org/2000/svg">
<path d="M2.49999 12C2.49999 12.1326 2.55267 12.2598 2.64644 12.3535C2.74021 12.4473 2.86738 12.5 2.99999 12.5H19.793L13.646 18.646C13.5521 18.7399 13.4994 18.8672 13.4994 19C13.4994 19.1328 13.5521 19.2601 13.646 19.354C13.6925 19.4005 13.7477 19.4374 13.8084 19.4625C13.8691 19.4877 13.9342 19.5006 14 19.5006C14.1328 19.5006 14.2601 19.4479 14.354 19.354L21.354 12.354C21.4006 12.3075 21.4375 12.2524 21.4627 12.1916C21.4879 12.1309 21.5009 12.0658 21.5009 12C21.5009 11.9342 21.4879 11.8691 21.4627 11.8084C21.4375 11.7476 21.4006 11.6924 21.354 11.646L14.354 4.64599C14.3075 4.5995 14.2523 4.56263 14.1916 4.53747C14.1308 4.51231 14.0657 4.49936 14 4.49936C13.9342 4.49936 13.8691 4.51231 13.8084 4.53747C13.7477 4.56263 13.6925 4.5995 13.646 4.64599C13.5995 4.69248 13.5626 4.74767 13.5375 4.80841C13.5123 4.86915 13.4994 4.93425 13.4994 4.99999C13.4994 5.06573 13.5123 5.13084 13.5375 5.19157C13.5626 5.25231 13.5995 5.3075 13.646 5.35399L19.793 11.5H2.99999C2.86738 11.5 2.74021 11.5527 2.64644 11.6464C2.55267 11.7402 2.49999 11.8674 2.49999 12Z" fill="black"/>
</svg>
