<svg width="23" height="23" viewBox="0 0 23 23" fill="none" xmlns="http://www.w3.org/2000/svg">
<g id="Group">
<path id="Vector" d="M21.4117 19.5378L22.2259 20.3567L20.3402 22.2423L15.2635 17.1364C13.7041 18.3066 11.7664 19 9.66665 19C4.51199 19 0.333313 14.8213 0.333313 9.66668C0.333313 4.51202 4.51199 0.333344 9.66665 0.333344C14.8213 0.333344 19 4.51202 19 9.66668C19 11.7534 18.3152 13.6802 17.158 15.2346L21.282 19.3871C21.3295 19.4346 21.3728 19.4851 21.4117 19.5378ZM9.66665 16.3333C13.3485 16.3333 16.3333 13.3486 16.3333 9.66668C16.3333 5.98478 13.3485 3.00001 9.66665 3.00001C5.98475 3.00001 2.99998 5.98478 2.99998 9.66668C2.99998 13.3486 5.98475 16.3333 9.66665 16.3333Z" fill="black"/>
</g>
</svg>
